# xmcd
#
# Track frame offsets:
#	150
#	10011
#	20691
#	32823
#	42712
#	52871
#	62601
#	73813
#	81858
#	91622
#	105169
#	113002
#	121261
#	134515
#	146003
#	157530
#	175941
#	189786
#
# Disc length: 2760 seconds
# Revision: 0
# Processed by: cddbd v1.5.2PL0 Copyright (c) Steve Scherf et al.
# Submitted via: dBpowerAMP V12.0
#
DISCID=dd0ac612
DTITLE=Various Artist - The Essential Johnny Cash, Disc 1
DYEAR=1955
DGENRE=Country*
TTITLE0=Johnny Cash - Hey Porter
TTITLE1=Johnny Cash - Cry Cry Cry
TTITLE2=Johnny Cash - I Walk The Line
TTITLE3=Johnny Cash - Get Rhythm
TTITLE4=Johnny Cash - There You Go
TTITLE5=Johnny Cash - Ballard Of A Teenage Queen
TTITLE6=Johnny Cash - Big River
TTITLE7=Johnny Cash - Guess Things Happen That Way
TTITLE8=Johnny Cash - All Over Again
TTITLE9=Johnny Cash - Don't Take Your Guns To Town
TTITLE10=Johnny Cash - Five Feet High And Rising
TTITLE11=Johnny Cash - The Rebel - Johnny Yuma
TTITLE12=Johnny Cash - Tennessee Flat-Top Box
TTITLE13=Johnny Cash - I Still Miss Someone
TTITLE14=Johnny Cash - Ring Of Fire
TTITLE15=Johnny Cash - The Ballad Of Ira Hayes
TTITLE16=Johnny Cash - Orange Blossom Special
TTITLE17=Johnny Cash with Carter Family - Were You There {When They Crucified My Lord}
EXTD=
EXTT0=
EXTT1=
EXTT2=
EXTT3=
EXTT4=
EXTT5=
EXTT6=
EXTT7=
EXTT8=
EXTT9=
EXTT10=
EXTT11=
EXTT12=
EXTT13=
EXTT14=
EXTT15=
EXTT16=
EXTT17=
PLAYORDER=
